<?xml version="1.0" encoding="utf-8"?>
<!-- Svg Vector Icons : http://www.onlinewebfonts.com/icon -->
<!DOCTYPE svg PUBLIC "-//W3C//DTD SVG 1.1//EN" "http://www.w3.org/Graphics/SVG/1.1/DTD/svg11.dtd">
<svg version="1.1" xmlns="http://www.w3.org/2000/svg" xmlns:xlink="http://www.w3.org/1999/xlink" x="0px" y="0px" viewBox="0 0 256 256" enable-background="new 0 0 256 256" xml:space="preserve">
<metadata> Svg Vector Icons : http://www.onlinewebfonts.com/icon </metadata>
<g><g><g><path fill="#000000" d="M24.7,10.5c-10.2,3-16.5,13.3-14.2,23.3c0.7,3.2,2.7,6.8,5.1,9.3l2.2,2.3v95v95.1l1.3,1.3c1.8,1.8,4.3,1.7,5.9-0.5c0.5-0.6,0.6-22.2,0.6-97.7v-97l-1.3-1.2c-0.7-0.7-2-1.8-2.8-2.6c-2.4-2.2-3.5-4.7-3.5-8.3c0-3.7,0.9-5.9,3.5-8.3c2.5-2.4,4.4-3.1,8-3.2c2.7,0,3.6,0.2,5.7,1.3c7.5,4.2,8.3,14.4,1.5,19.5c-1.2,0.9-2.3,2-2.6,2.6c-0.4,0.6-0.6,3.1-0.6,6.6c0,5.9,0.5,8,2.1,8.6c0.4,0.1,46.2,0.3,101.7,0.3h100.9v31.6v31.6h-18.4h-18.5l-1.1,1.2c-1.6,1.5-1.6,4,0,5.5l1.1,1.2h18.5h18.4l-0.1,31.4l-0.1,31.5l-93.5,0.2c-92.8,0.2-93.5,0.2-94.2,1.2c-1.8,2.4-0.9,5.4,2,6.2c1.2,0.4,29.6,0.5,96.6,0.4l94.9-0.1l1.1-1.3l1.1-1.3V124V51.9l-1.1-1.3l-1.1-1.3l-101.2-0.1L41.3,49.1v-1.8c0-1.5,0.4-2.1,2.4-4.2c3.5-3.6,5.2-7.6,5.4-12.6c0.1-2.9,0-4.7-0.6-6.6c-1.8-5.7-6.4-10.7-11.8-12.8C33.6,10,27.6,9.7,24.7,10.5z"/><path fill="#000000" d="M34.8,66.6l-1.3,1.3v87.7v87.7l1.3,1.3c1.8,1.7,3.8,1.8,5.3,0.2l1.2-1.1v-88c0-68.4-0.1-88.1-0.6-88.7C39.1,64.9,36.7,64.7,34.8,66.6z"/><path fill="#000000" d="M131.6,74c-2,1.1-3.6,3-5.2,6.5l-1.2,2.5l-3.5,0c-4.2,0-6.7,1.1-8.7,3.7c-1.7,2.2-2,5.7-0.7,8.6l0.9,2.1l-3.5,1.8c-6.5,3.2-12,10.1-12.8,16c-0.5,3.2,0.5,4.2,4.6,5.2l1.3,0.3l-1,1.5c-2.6,4.3-3.8,11.5-2.8,17.8c1.1,6.6,5.4,17.8,7.4,18.9c1.2,0.6,3.4,0.6,4.2-0.1c0.4-0.3,2.1-2.3,3.7-4.5c1.7-2.2,3.4-4.3,3.9-4.7c0.9-0.8,0.9-0.7,1.7,1.8c2.2,7,7.6,14.4,15.1,20.9c3.7,3.2,5.6,3.5,7.6,1.5c1-1,1.2-1.4,0.9-3.1c-1.2-9-0.8-12.9,1.8-15.3c2.8-2.6,3-4.4,1-6.6c-1.3-1.4-3.7-1.3-5.7,0.2c-2.3,1.7-3.8,4.4-5,8.3l-1,3.5l-1.7-2c-2.5-2.9-4.8-7.2-5.7-10.7c-0.7-2.9-0.7-3.2,0.1-5.9c0.8-2.5,0.8-3,0.2-4c-0.9-1.6-2.7-2.6-4.1-2.3c-2,0.5-5.6,3.2-10,7.5l-4.2,4.2l-1.2-3.7c-1-3-1.2-4.7-1.2-8.6c0-4.3,0.1-5.1,1.2-7.4c0.6-1.4,1.8-3.3,2.6-4.1c2.7-3.1,2.5-5.2-0.8-7.7c-1.2-0.9-2.5-1.9-3-2.2c-0.7-0.5-0.8-0.6-0.1-1.9c1.8-3.6,7.3-6.9,12.4-7.4c4.9-0.5,6.8-3.3,4.3-6.6c-2.4-3.3-3.9-5.7-3.9-6.2c0-1.3,3.1-1.2,6.3,0.1c3.6,1.4,5.7,0.2,6.5-3.9c0.9-4.1,2.6-7.1,3.9-7.1c1.1,0,3.5,2.3,3.5,3.3c0,1.2,1.5,3.5,2.6,4c0.6,0.3,3.5,0.5,6.4,0.5c4.7,0,5.4,0.1,7.6,1.2c3,1.5,8.4,5.7,14.1,11c4.1,3.7,4.7,4.2,8,5.2c2,0.6,3.9,1.5,4.2,1.9c0.8,1.2,0.7,6.8-0.1,7.5c-0.5,0.4-2.3,0.5-7.1,0.2c-9.5-0.5-13.6,0.6-16.8,4.4c-1.9,2.2-2.7,4.5-2.7,7.8c0,5.3,3.2,9,9.4,10.9l1.8,0.6l0.1,3.3c0.1,3.9,0.4,3.9-5.7,1c-4.9-2.4-8.8-5-12.7-8.6c-2.8-2.5-3.5-3-5-3c-2.3,0-3.8,1.5-3.8,3.9c0,1.5,0.4,2.1,2.9,4.5c5.8,5.6,14.7,10.7,23.8,13.8c4.6,1.5,5.9,1.5,7.4,0c0.9-0.9,0.9-1.6,0.9-10.5c0-11.4,0.1-11.2-5.2-12c-4.3-0.7-6-1.8-6.2-3.8c-0.3-3.8,2.3-4.7,11.7-4.3c7.5,0.3,9.6,0,12.1-2.3c2.4-2.1,3.5-4.7,3.5-9c0-7.8-2.4-11.4-9.1-13.4c-2.5-0.7-3.6-1.5-8.2-5.6c-6-5.5-10.5-8.7-14.7-10.7c-2.6-1.2-3.6-1.5-7.7-1.6c-4.7-0.2-4.7-0.2-5.2-1.5c-0.8-1.8-3.6-4.7-5.6-5.6C138.1,72.8,133.8,72.8,131.6,74z"/><path fill="#000000" d="M153,97.6c-1.4,1.6-1.6,3.1-0.6,4.8c2.3,3.6,7.7,1.5,7-2.9c-0.2-1.7-1.9-3-3.7-3C154.5,96.6,153.7,96.9,153,97.6z"/><path fill="#000000" d="M50.7,121.2c-1,0.8-1.3,1.5-1.3,2.8c0,1.3,0.3,2,1.3,2.8l1.2,1.1h17h17l1.2-1.1c1.8-1.5,1.8-4.1,0-5.6l-1.2-1.1H69H52L50.7,121.2z"/></g></g></g>
</svg>