<?xml version="1.0" encoding="utf-8"?>
<!-- Svg Vector Icons : http://www.onlinewebfonts.com/icon -->
<!DOCTYPE svg PUBLIC "-//W3C//DTD SVG 1.1//EN" "http://www.w3.org/Graphics/SVG/1.1/DTD/svg11.dtd">
<svg version="1.1" xmlns="http://www.w3.org/2000/svg" xmlns:xlink="http://www.w3.org/1999/xlink" x="0px" y="0px" viewBox="0 0 256 256" enable-background="new 0 0 256 256" xml:space="preserve">
<metadata> Svg Vector Icons : http://www.onlinewebfonts.com/icon </metadata>
<g><g><g><path fill="#000000" d="M117.7,10.2c-7.2,0.8-8.4,1.1-9.6,2.2c-0.6,0.6-1.1,1.6-1.1,2.2c0,0.6,1,4.9,2.3,9.6c4,14.5,6.9,30,6.9,36.3c0,1.6,0.3,2.4,1.2,3.2c1.1,1.2,1.2,1.2,10.6,1.2c11.9,0,11.4,0.2,11.9-6.8c0.6-8,3.8-23.7,8.4-40.1c1.4-4.9,0.4-6.3-5.4-7.2C138.6,10.1,122.1,9.8,117.7,10.2z M124.1,24.3c0,6.6,0,6.8,1.2,7.8c0.7,0.8,1.6,1.2,2.8,1.2c1.2,0,2-0.4,2.8-1.2c1.1-1.1,1.2-1.3,1.2-7.9v-6.8l1.8,0.3c0.9,0.1,2.7,0.3,4,0.3c2.7,0,2.7-1.1-0.3,10.8c-2.4,9.4-4.3,19.1-4.8,24.2l-0.3,3.5H128h-4.2l-0.3-3.5c-0.5-5.2-2.4-14.8-5-24.9c-1.2-5-2.3-9.3-2.3-9.6c0-0.4,1.1-0.6,2.9-0.7c1.6-0.1,3.3-0.2,3.9-0.2C124.1,17.6,124.1,17.7,124.1,24.3z"/><path fill="#000000" d="M95.3,31.4c-16,6.1-28.9,15.1-39,27.2c-12.6,15-20.1,32.7-22.1,52.2c-0.3,3.1-0.5,26.9-0.5,68.7v63.9l1.3,1.3c1.5,1.5,1.6,1.5,6.7,0.9c12.1-1.4,32.2-2.7,52.1-3.2c19.9-0.6,18.6,0,18.1-7.3l-0.3-4.7h11.8h11.9l1.3-1.3c1.7-1.7,1.7-3.2,0.1-5.1l-1.2-1.4h-12.4h-12.4l-0.3-2c-0.1-1.1-1.6-14.7-3.2-30.2c-1.6-15.5-3.2-28.7-3.4-29.1c-0.3-0.6-7.1-3.8-17.8-8.6c-16.9-7.6-17.3-7.8-17.5-9.2c-0.6-3.2-2.7-22.1-2.5-22.2c0.1-0.1,4.3,0.5,9.4,1.3c12.1,2,25.5,3.8,33.7,4.5l6.6,0.6l0,2.4c0,1.2-0.8,14.7-1.8,29.8l-1.8,27.5l4.5,9.1c3.5,7.1,4.8,9.3,5.7,9.8c1.7,0.9,9.6,0.9,11.4,0c1-0.5,2.3-2.7,5.7-9.8l4.5-9.1l-1.8-27.5c-1-15.1-1.8-28.5-1.8-29.8l0-2.4l6.6-0.6c8.2-0.7,21.6-2.4,33.7-4.5c5.1-0.8,9.3-1.5,9.4-1.4c0.2,0.2-2.6,23.3-2.9,23.6c-0.1,0.1-7.8,3.6-17.2,7.8c-9.4,4.2-17.3,7.9-17.6,8.4c-0.3,0.4-0.7,1.6-0.8,2.7c-0.6,4.8-7.6,72.7-7.6,74.4c0,1.4,0.3,2.1,1.1,2.9c1,1,1.5,1,17.2,1.4c20,0.6,29,1.1,47.3,2.8c8.8,0.8,9.7,0.9,10.7,0.2c0.6-0.4,1.3-1.2,1.6-1.7c0.3-0.6,0.5-20.9,0.3-67.5c-0.1-73,0-68.3-2.9-79.8c-7.7-30.2-29.4-54.2-59-65.2c-5.1-1.9-6.6-1.9-8.1,0c-1.1,1.4-1.2,2.5-0.3,4.2c0.6,1,1.5,1.6,4.9,2.8c31.8,11.4,53.7,39.5,57.2,73.3c0.3,3,0.5,26.5,0.5,65.4v60.7l-1.7-0.3c-6.3-1-30.4-2.5-47.1-3c-7.2-0.2-13.2-0.5-13.3-0.6c-0.2-0.3,6.6-67.8,6.9-67.9c0,0,7.8-3.5,17.1-7.7c11.1-4.9,17.3-7.9,17.7-8.5c0.4-0.6,1.4-7.4,2.7-17.5c2.2-17.8,2.2-18.4,0-19.6c-1.2-0.7-0.7-0.7-15.5,1.8c-14.2,2.4-26.3,4-37.4,4.9c-4.9,0.4-9.5,1-10,1.3c-2.2,1.1-2.2,0.9-0.1,34.1l2,31.3l-3.2,6.5c-3.1,6.1-3.3,6.4-4.6,6.4c-1.3,0-1.5-0.3-4.6-6.5l-3.2-6.4l1.9-31.4c2.1-32.8,2.1-32.6,0.1-34c-0.4-0.3-2.7-0.7-5.1-0.8c-11.8-0.8-31-3.3-46.5-6.1c-4.9-0.9-9.4-1.6-10-1.6c-1.2,0-2.8,1.4-3.2,2.7c-0.5,1.4,3.7,33.7,4.5,34.9c0.5,0.6,6.5,3.6,17.7,8.6c9.4,4.2,17.1,7.6,17.1,7.6c0.3,0.1,7.2,67.7,6.9,67.9c-0.1,0.1-6.2,0.5-13.5,0.6c-16.5,0.5-40.5,2-46.9,3l-1.7,0.3v-60.9c0-39.3,0.2-62.6,0.5-65.6C45.4,78,67,50.2,98.5,38.7c5-1.8,6.7-3.2,6.7-5.3c0-1.9-1.9-3.7-3.8-3.7C100.6,29.6,97.8,30.5,95.3,31.4z"/></g></g></g>
</svg>