<?xml version="1.0" encoding="utf-8"?>
<!-- Svg Vector Icons : http://www.onlinewebfonts.com/icon -->
<!DOCTYPE svg PUBLIC "-//W3C//DTD SVG 1.1//EN" "http://www.w3.org/Graphics/SVG/1.1/DTD/svg11.dtd">
<svg version="1.1" xmlns="http://www.w3.org/2000/svg" xmlns:xlink="http://www.w3.org/1999/xlink" x="0px" y="0px" viewBox="0 0 256 256" enable-background="new 0 0 256 256" xml:space="preserve">
<metadata> Svg Vector Icons : http://www.onlinewebfonts.com/icon </metadata>
<g><g><g><path fill="#000000" d="M125.4,11.1l-1.3,1.1l-0.2,12.9l-0.2,12.8l-9.5,19c-5.3,10.5-9.6,19.5-9.6,20.1c0,2.7,2.8,4.4,5.3,3.4c1.4-0.6,2.1-1.7,7.8-13l6.2-12.4v11c0,12.3,0.3,13.7,2.8,14.5c1,0.4,1.8,0.4,2.9,0c2.4-0.8,2.7-2.2,2.8-14.5v-11l6.2,12.2c3.4,6.7,6.5,12.5,6.9,12.9c0.4,0.4,1.5,0.6,2.4,0.6c1.9,0,3.8-1.8,3.8-3.7c0-0.6-4.3-9.8-9.7-20.5l-9.7-19.4v-9.7v-9.7h9.7h9.7v3.9v3.9H145h-6.5l-1.3,1.3c-1.4,1.4-1.7,2.7-0.8,4.3c1.1,2,1.6,2.1,11.3,2.2c12.5,0,11.6,1,11.6-11.8c0-9.5,0-9.5-1.2-10.6l-1.1-1.2h-15.2h-15.2L125.4,11.1z"/><path fill="#000000" d="M40.4,65.2c-0.4,0.1-1.1,0.6-1.6,1c-1.2,1.1-21,40.9-21,42.3c0,1.5,2.4,3.9,3.8,3.9c2.3,0,3.5-1.8,9.8-14.2l6.2-12.3v11.8c0,6.5,0.2,12.2,0.3,12.6c0.4,0.9,2.5,2.1,3.9,2.1c0.6,0,1.6-0.6,2.4-1.3l1.3-1.3l0-11.7V86.3l6.2,12.2c3.4,6.7,6.5,12.5,6.9,12.9c1.3,1.1,4.3,0.9,5.3-0.4c1.8-2.2,1.4-3.2-9.3-24.5c-9.5-19-10.3-20.3-11.8-21c-0.9-0.4-1.7-0.6-1.7-0.6C41.2,64.9,40.8,65,40.4,65.2z"/><path fill="#000000" d="M213,65.5c-1.3,0.6-2.4,2.5-11.7,20.9c-10.6,21.3-11,22.4-9.3,24.5c1,1.3,4,1.5,5.3,0.4c0.4-0.4,3.5-6.2,6.9-12.9l6.2-12.2V98l0,11.7l1.3,1.3c1.4,1.4,2.7,1.7,4.3,0.8c2.1-1.1,2.1-1.4,2.2-14l0-12l6.4,12.7c6.6,13,7.1,13.8,9.7,13.8c1.3,0,3.6-2.4,3.6-3.9c0-1.4-19.8-41.2-21-42.3C215.8,65,214.6,64.9,213,65.5z"/><path fill="#000000" d="M97.8,90c-1.7,1.7-1.6,4,0.3,5.5c1.2,1,1.9,1.2,3.9,1.2h2.5v18.4v18.5l1.2,1.1c1.6,1.6,3.6,1.5,5.3-0.2l1.3-1.3v-18.3V96.7H128h15.7v18.3v18.3l1.3,1.3c1.8,1.7,3.8,1.8,5.3,0.2l1.2-1.1v-18.5V96.7h2.5c2,0,2.8-0.2,3.9-1.2c1.8-1.5,2-3.8,0.3-5.5l-1.1-1.2H128H98.9L97.8,90z"/><path fill="#000000" d="M125.4,113.4c-1.3,1.1-1.3,1.2-1.3,6.7s0,5.6,1.3,6.7c1.7,1.4,3.7,1.4,5.2,0c1.4-1.4,1.8-3.5,1.5-8.4c-0.2-3.6-0.3-4.1-1.5-5.1C129,112,127,112.1,125.4,113.4z"/><path fill="#000000" d="M11.8,120.8c-2.1,1.6-2.3,4.1-0.5,5.9c1.2,1.2,1.7,1.3,3.9,1.3h2.6v41.9v41.9l1.1,1.2c1.5,1.8,4.1,1.8,5.6,0l1.1-1.2v-41.9V128h15.6h15.6l0.2,2.9c0.2,2.4,0.4,3,1.5,3.9c1.7,1.4,3.7,1.4,5.1-0.1c1-0.9,1.2-1.6,1.2-3.9V128h2.8c2.4,0,3-0.2,3.9-1.2c1.8-1.7,1.7-4.1,0-5.7l-1.2-1H41.4C19.4,120.2,12.4,120.4,11.8,120.8z"/><path fill="#000000" d="M184.4,121.3c-1,0.8-1.3,1.5-1.2,2.9c0.1,2.7,1.7,3.9,5.3,3.9h2.7v3c0,2.7,0.1,3.1,1.2,3.9c1.6,1.3,3.5,1.2,5.1-0.1c1.1-0.9,1.3-1.6,1.5-3.9l0.2-2.9h15.6h15.6v40.1v40.1l1.2,1.1c1.2,1.2,3.6,1.5,4.9,0.6c1.8-1.4,1.8-1.4,1.8-42.2V128h2.6c2.2,0,2.7-0.2,3.9-1.3c1.4-1.4,1.7-2.7,0.8-4.3c-1.2-2.2-0.4-2.1-30.9-2.2h-28.9L184.4,121.3z"/><path fill="#000000" d="M39.7,144.2c-1.8,1-2.1,1.8-2.1,7.4c0,5.2,0,5.5,1.2,6.6c0.7,0.8,1.6,1.2,2.6,1.2c3.2,0,4.1-1.8,4.1-8.1c0-4.8,0-4.9-1.3-6.3C42.7,143.6,41.3,143.4,39.7,144.2z"/><path fill="#000000" d="M58.5,144.8l-1.3,1.1v31.2v31.2l1.3,1.1c1.6,1.3,3.5,1.4,5.1,0.1l1.2-0.9l0.1-28.4l0.1-28.4H69h3.9l0.1,6.7c0.2,9.5-1.2,8.8,15.3,8.8c7.3,0,13.6-0.1,14-0.3c1.6-0.6,2.1-2.7,2.1-9.2v-6.2h3.9h3.9v6.7c0,6.5,0,6.8,1.2,7.8l1.1,1.2H128h13.4l1.1-1.2c1.1-1.1,1.2-1.3,1.2-7.8v-6.7h3.9h3.9v6.2c0,6.5,0.5,8.5,2.1,9.2c0.4,0.1,6.7,0.3,14,0.3c16.5,0,15.2,0.8,15.3-8.8l0.1-6.7h3.9h3.9l0.1,28.4l0.1,28.4l1.2,0.9c1.6,1.3,3.5,1.2,5.1-0.1l1.3-1.1v-31.2v-31.2l-1.3-1.1c-1.3-1.1-1.4-1.1-10.5-1.1c-9,0-9.2,0-10.5,1.1c-1.3,1.1-1.3,1.1-1.4,7.8l-0.1,6.7h-7.8h-7.8v-6.4c0-3.5-0.1-6.8-0.3-7.2c-0.7-1.8-2.5-2.1-11.7-2.1h-8.8l-1.3,1.3l-1.3,1.3v6.5v6.5H128h-7.8v-6.5v-6.5l-1.3-1.3l-1.3-1.3h-8.8c-9.2,0-11,0.3-11.7,2.1c-0.1,0.4-0.3,3.6-0.3,7.2v6.4h-7.8H81l-0.1-6.7c-0.1-6.7-0.1-6.7-1.4-7.8s-1.4-1.1-10.5-1.1C60,143.7,59.8,143.7,58.5,144.8z"/><path fill="#000000" d="M211.8,145c-1.3,1.3-1.3,1.5-1.3,6.3c0,6.3,0.8,8,4.1,8.1c1,0,1.9-0.4,2.6-1.2c1.1-1.1,1.2-1.4,1.2-6.4c0-2.9-0.1-5.6-0.3-6c-0.4-0.9-2.5-2.1-3.9-2.1C213.6,143.7,212.6,144.3,211.8,145z"/><path fill="#000000" d="M40.4,175.3c-0.4,0.1-1.2,0.7-1.7,1.2c-1,0.9-1.1,1.3-1.1,6.5c0,5.2,0.1,5.7,1.1,6.5c1.4,1.3,2.4,1.6,4,1c2.1-0.7,2.8-2.4,2.8-7.5c0-5.1-0.4-6.5-2.3-7.4C41.8,175,41.5,174.9,40.4,175.3z"/><path fill="#000000" d="M212.8,175.6c-0.6,0.3-1.4,1.1-1.7,1.7c-0.7,1.4-0.8,9.5-0.1,11.2c0.9,2.3,4.3,2.9,6.3,1.2c1.1-1,1.1-1.3,1.1-6.6c0-5.2-0.1-5.7-1-6.6C215.9,175.2,214.2,174.9,212.8,175.6z"/><path fill="#000000" d="M124.8,183.4c-3.3,0.5-7.1,1.9-9.8,3.7c-4.6,3-8.8,9-10,14.2c-0.3,1.2-0.5,10.1-0.5,22.3v20.2l1.2,1.1l1.2,1.2h20.7c21.8,0,22.8-0.1,23.6-2.1c0.1-0.4,0.3-9.7,0.3-20.6c0-21.5-0.1-22.3-2.6-27.5c-1.6-3.2-6.5-8.3-9.6-9.9C134.7,183.6,129.3,182.7,124.8,183.4z M133.7,192.1c5,1.8,9.2,7.1,9.8,12.4l0.3,2.3H128h-15.8l0.3-2.3c0.6-5.3,4.7-10.6,9.7-12.4C125.4,190.9,130.4,190.8,133.7,192.1z M143.7,218.6v3.9H128h-15.7v-3.9v-3.9H128h15.7V218.6z M143.7,234.2v3.9H128h-15.7v-3.9v-3.9H128h15.7V234.2z"/><path fill="#000000" d="M14.8,219.2c-2.1,1-3.6,2.5-4.3,4.3c-0.3,0.8-0.5,5.1-0.5,10.5v9.3l1.3,1.3l1.3,1.3h40.6h40.6l1.3-1.1l1.3-1.1l0.1-8.8c0.1-5.6,0-9.5-0.4-10.7c-1.1-4.1-5.4-6.5-9.5-5.5c-1.4,0.4-2.5,0.4-4,0c-1.5-0.4-2.5-0.4-3.9,0c-1.4,0.4-2.4,0.4-3.9,0c-1.5-0.4-2.5-0.4-3.9,0c-1.4,0.4-2.4,0.4-3.9,0c-1.5-0.4-2.5-0.4-3.9,0c-1.4,0.4-2.4,0.4-3.9,0c-1.4-0.4-2.4-0.4-3.9,0c-1.4,0.4-2.5,0.4-4,0c-1.5-0.4-2.5-0.4-3.9,0c-1.3,0.4-2.5,0.4-4,0c-1.5-0.3-2.7-0.3-3.9,0c-1.2,0.3-2.4,0.3-3.9,0c-1.5-0.3-2.7-0.3-4.1,0c-1.4,0.4-2.5,0.4-3.9,0c-1.4-0.4-2.4-0.4-4,0c-1.5,0.4-2.5,0.4-3.5,0C18.1,218.2,17,218.2,14.8,219.2z M43.3,229.6c1.8,1.3,4.5,0.6,5.7-1.6c0.5-0.8,0.6-0.9,0.6-0.3c0,1,2.1,2.7,3.3,2.7c1.4,0,3.5-1.3,3.8-2.4c0.3-1,0.3-1,0.9,0.1c1.3,2.6,5.2,2.8,6.7,0.4l0.8-1.3l0.5,1.2c1.2,2.5,5.1,2.6,6.5,0.2l0.8-1.3l0.5,1.2c1.2,2.5,5.1,2.6,6.5,0.1c0.8-1.3,0.8-1.3,1.2-0.4c0.3,1.1,2.4,2.4,3.9,2.4c0.6,0,1.6-0.6,2.4-1.3l1.3-1.3v5.3v5.3H53.3H17.8v-5.3v-5.3l1.3,1.3c1.8,1.8,3.4,1.8,5.2,0l1.3-1.3L27,229c1.9,1.8,4.4,1.7,5.9-0.6c0.5-0.7,0.6-0.7,1.9,0.6c0.7,0.7,1.8,1.3,2.4,1.3c1.5,0,3.6-1.2,4-2.4l0.3-1.1l0.4,1C42,228.4,42.7,229.2,43.3,229.6z"/><path fill="#000000" d="M164.1,219.2c-2.2,1-3.7,2.7-4.4,5.1c-0.3,1-0.4,5.1-0.3,10.6l0.1,8.9l1.3,1.1l1.3,1.1h40.6h40.6l1.3-1.3l1.3-1.3V234c0-10.2-0.2-11.4-2.7-13.5c-2.2-1.8-4.6-2.4-7.2-1.8c-1.5,0.4-2.6,0.4-3.9,0c-1.3-0.3-2.4-0.3-3.8,0c-1.5,0.4-2.5,0.4-3.9,0c-1.3-0.4-2.5-0.4-4,0c-1.5,0.3-2.7,0.3-4.1,0c-1.4-0.4-2.5-0.4-3.9,0c-1.4,0.4-2.4,0.4-3.9,0c-1.4-0.4-2.4-0.4-3.9,0c-1.4,0.4-2.5,0.4-4,0c-1.5-0.4-2.5-0.4-3.9,0c-1.4,0.4-2.4,0.4-3.9,0c-1.5-0.4-2.5-0.4-3.9,0c-1.4,0.4-2.4,0.4-3.9,0c-1.5-0.4-2.5-0.4-3.9,0c-1.4,0.4-2.4,0.4-3.8,0s-2.5-0.4-4.1,0c-1.5,0.3-2.6,0.3-3.7,0C167.3,218.2,166.3,218.3,164.1,219.2z M177,229.7c1.8,1.1,4.2,0.6,5.3-1.2l0.8-1.3l0.5,1.2c1.1,2.4,5.1,2.6,6.5,0.2l0.8-1.3l0.7,1.3c0.8,1.4,2.9,2.1,4.5,1.6c0.6-0.2,1.4-0.9,1.8-1.7c0.8-1.3,0.8-1.3,1.2-0.4c0.3,1.1,2.4,2.4,3.8,2.4c1.2,0,3.3-1.7,3.3-2.7c0-0.6,0.2-0.5,0.6,0.3c0.7,1.3,2.4,2.3,3.8,2.4c1.2,0,3.4-1.7,3.4-2.7c0-0.6,0.2-0.5,0.6,0.3c1.4,2.5,4.3,3,6.3,1c1.2-1.2,1.4-1.3,1.9-0.6c1.6,2.2,4.1,2.4,5.9,0.6l1.3-1.3l1.4,1.3c1.8,1.7,3.5,1.7,5.2,0l1.3-1.3v5.3v5.3h-35.5h-35.5v-5.3v-5.3l1.3,1.3c0.7,0.7,1.8,1.3,2.3,1.3c1.5,0,3.6-1.2,4-2.4l0.3-1.1l0.4,1C175.7,228.4,176.4,229.2,177,229.7z"/></g></g></g>
</svg>