<?xml version="1.0" encoding="utf-8"?>
<!-- Svg Vector Icons : http://www.onlinewebfonts.com/icon -->
<!DOCTYPE svg PUBLIC "-//W3C//DTD SVG 1.1//EN" "http://www.w3.org/Graphics/SVG/1.1/DTD/svg11.dtd">
<svg version="1.1" xmlns="http://www.w3.org/2000/svg" xmlns:xlink="http://www.w3.org/1999/xlink" x="0px" y="0px" viewBox="0 0 256 256" enable-background="new 0 0 256 256" xml:space="preserve">
<metadata> Svg Vector Icons : http://www.onlinewebfonts.com/icon </metadata>
<g><g><g><path fill="#000000" d="M205.2,17.9c-19.7,4.4-35.8,8-35.9,8c-0.1,0-16.4,21.6-36.2,48.1c-39.3,52.4-37.9,50.2-35.3,52.7c1.2,1.2,3,1.5,4.5,0.7c0.5-0.2,16.8-21.6,36.2-47.5l35.2-47l3.4-0.7c1.8-0.4,14.4-3.2,28-6.2l24.6-5.4l-58.7,58.7c-57.2,57.2-58.7,58.7-58.7,60.4c0,2.4,1.6,4,4,4c1.7,0,3.2-1.4,60.2-58.5c32.2-32.2,58.5-58.3,58.5-58.1c0,0.3-2.7,12.8-6.1,27.9L223,82.4l-46.9,35.2c-25.8,19.4-47.2,35.6-47.5,36.1c-0.8,1.5-0.6,3.2,0.7,4.5c2.5,2.6,0.4,4,52.7-35.2c26.4-19.8,48.2-36.5,48.3-36.9c0.1-0.5,3.8-17,8.2-36.7c7.1-31.9,7.9-36,7.4-37.2c-0.6-1.4-2.2-2.4-3.9-2.4C241.4,9.9,224.9,13.5,205.2,17.9z"/><path fill="#000000" d="M64,108.5c-2.3,0.8-7.2,7.2-9.1,11.8c-1.1,2.5-1.2,3.6-1.2,7.5c0,8.2,1.8,11.5,12.4,22.3l7.4,7.5l-18.3,18.3l-18.3,18.3l-2.8-2.6c-1.5-1.4-3.3-2.8-4-3.1c-1.8-0.6-5.2-0.6-6.6,0.2c-1.8,1-12.4,11.9-13,13.3c-0.7,2-0.6,4.3,0.4,6.2c1.3,2.5,35.4,36.4,37.5,37.3c4.1,1.7,6.5,0.5,13.4-6.6c3-3,5.6-6,5.9-6.8c1.3-3.3,0.3-6.5-3.2-10.2l-2.4-2.5L80.3,201l18.3-18.3l7.2,7.2c4,4,8.6,8,10.2,9.1c8,5.2,16.5,5,24.8-0.6c4.6-3.1,6.8-5.5,6.8-7.5c0-1.6-2-3.6-40.3-42c-26.5-26.5-40.8-40.4-41.5-40.6C65.2,108.3,64.3,108.3,64,108.5z M101.8,154.5c29.4,29.4,36.1,36.3,35.7,36.9c-0.3,0.3-1.8,1.2-3.2,2c-2.2,1.1-3.2,1.3-6.1,1.3c-5.7,0-7.3-1.1-18.4-12c-9-8.9-9.5-9.3-11.2-9.3c-1.8,0-2.2,0.4-22,20.2l-20.2,20.2l-3.5-3.5c-1.8-1.9-4-3.6-4.6-3.7c-2.6-0.6-4.8,1.3-4.7,4.1c0,1.2,1.4,2.8,8.5,9.8l8.4,8.4l-4.6,4.6l-4.6,4.6l-16.8-16.8l-16.7-16.7l4.6-4.6l4.6-4.6l4.1,4c3.5,3.4,4.3,4,5.7,4c1.4,0,3.2-1.6,21.9-20.3L79,163.1l3.9,3.9c2.2,2.2,4.3,4.1,4.8,4.2c2.3,0.7,4.9-1.3,4.9-3.9c0-1.5-1-2.6-14.2-15.9c-11.8-11.9-14.5-14.8-15.6-17.1c-1.5-3.2-2-6.8-1.2-9.7c0.6-2.2,3-6.2,3.6-6.2C65.4,118.3,81.9,134.6,101.8,154.5z"/></g></g></g>
</svg>